<?xml version="1.0" standalone="no"?>
<!DOCTYPE svg PUBLIC "-//W3C//DTD SVG 20010904//EN"
 "http://www.w3.org/TR/2001/REC-SVG-20010904/DTD/svg10.dtd">
<svg version="1.0" xmlns="http://www.w3.org/2000/svg"
 width="1366.000000pt" height="768.000000pt" viewBox="0 0 1366.000000 768.000000"
 preserveAspectRatio="xMidYMid meet">

<g transform="translate(0.000000,768.000000) scale(0.100000,-0.100000)"
fill="#000000" stroke="none">
<path d="M0 3840 l0 -3840 1905 0 1905 0 0 40 c0 29 4 40 15 40 11 0 15 11 15
40 0 36 3 40 25 40 23 0 25 4 25 40 0 29 4 40 15 40 11 0 15 11 15 40 0 36 3
40 25 40 23 0 25 4 25 40 0 29 4 40 15 40 11 0 15 11 15 40 0 22 5 40 10 40 6
0 10 18 10 40 0 29 4 40 15 40 11 0 15 11 15 40 0 36 3 40 25 40 15 0 25 6 25
14 0 8 10 17 23 19 l22 4 -22 2 c-13 0 -23 8 -23 16 0 12 -19 15 -109 15 -61
0 -112 4 -115 9 -4 5 -84 10 -178 11 -95 0 -174 3 -177 5 -2 3 158 5 357 5
234 0 362 4 362 10 0 7 -534 11 -1567 12 l-1568 3 -3 2538 -2 2537 2832 2
c1558 2 2705 5 2548 8 -157 3 -239 6 -182 8 l102 2 0 30 c0 25 4 30 25 30 23
0 25 4 25 40 0 29 4 40 15 40 11 0 15 11 15 40 0 36 3 40 25 40 23 0 25 4 25
40 0 29 4 40 15 40 11 0 15 11 15 40 0 36 3 40 25 40 23 0 25 4 25 40 0 29 4
40 15 40 11 0 15 11 15 40 0 22 5 40 10 40 6 0 10 18 10 40 0 29 4 40 15 40
11 0 15 11 15 40 0 36 3 40 25 40 23 0 25 4 25 40 0 29 4 40 15 40 11 0 15 11
15 40 0 29 4 40 15 40 11 0 15 11 15 40 0 36 3 40 25 40 23 0 25 4 25 40 0 29
4 40 15 40 11 0 15 11 15 40 0 36 3 40 25 40 23 0 25 4 25 40 0 29 4 40 15 40
11 0 15 11 15 40 0 22 5 40 10 40 6 0 10 18 10 40 0 38 2 40 30 40 28 0 30 -2
30 -40 0 -22 5 -40 10 -40 6 0 10 18 10 40 0 22 -4 40 -10 40 -6 0 -10 33 -10
80 0 79 0 80 25 80 23 0 25 4 25 40 0 29 4 40 15 40 11 0 15 11 15 40 0 36 3
40 25 40 23 0 25 4 25 40 0 29 4 40 15 40 11 0 15 11 15 40 l0 40 -3600 0
-3600 0 0 -3840z m1227 3547 l18 -24 18 24 c27 34 107 33 134 -1 l19 -24 21
24 c43 48 133 20 133 -42 0 -14 -4 -33 -10 -43 -7 -14 -4 -20 15 -29 36 -17
57 -64 53 -125 l-3 -52 -57 -3 c-36 -2 -58 -8 -59 -15 0 -7 -2 -25 -2 -42 l-2
-30 -170 0 -170 0 -2 25 c0 14 -1 33 -2 43 -1 13 -10 17 -45 17 -70 0 -76 5
-76 64 0 52 16 88 52 114 14 10 15 18 7 39 -21 57 11 103 71 103 29 0 44 -6
57 -23z m853 -492 l0 -115 -25 0 -25 0 0 115 0 115 25 0 25 0 0 -115z m-1119
93 c1 -7 1 -17 0 -22 -2 -10 47 -4 109 14 56 16 106 8 154 -25 29 -20 50 -25
117 -27 83 -3 84 -4 106 -46 1 -2 31 21 67 52 72 61 97 68 120 34 32 -45 22
-61 -113 -177 -71 -61 -141 -115 -156 -121 -49 -19 -123 -11 -234 25 -125 41
-150 43 -174 14 -15 -17 -27 -20 -75 -17 l-57 3 -3 153 -3 152 71 0 c49 0 70
-4 71 -12z m998 -3 c28 -14 41 -33 41 -61 0 -21 -43 -17 -58 6 -17 27 -77 28
-92 1 -14 -27 -13 -74 3 -95 19 -26 79 -18 92 12 13 29 55 31 55 1 0 -47 -44
-79 -109 -79 -116 0 -150 183 -41 223 29 10 81 7 109 -8z m211 -7 c0 -13 -8
-18 -30 -18 -18 0 -30 5 -30 13 0 19 5 22 34 22 18 0 26 -5 26 -17z m1131 12
c28 -16 25 -64 -6 -88 -22 -17 -23 -21 -9 -33 13 -10 16 -9 21 9 4 17 13 22
40 22 28 0 34 -4 31 -17 -2 -10 -11 -17 -21 -17 -22 2 -23 -33 -2 -56 14 -15
14 -18 0 -30 -11 -9 -18 -10 -29 -1 -9 8 -21 8 -45 0 -58 -20 -120 7 -121 52
0 9 9 27 19 41 13 16 17 29 10 39 -35 56 46 114 112 79z m349 -16 c7 -7 12
-29 13 -49 1 -48 -29 -75 -84 -75 -38 0 -39 -1 -39 -35 0 -32 -2 -35 -30 -35
l-30 0 0 103 c0 57 2 106 4 108 9 9 156 -7 166 -17z m793 20 c13 -13 -7 -34
-33 -34 -26 0 -30 7 -21 38 2 5 48 2 54 -4z m-1788 -34 c0 -8 10 -16 23 -18
29 -4 30 -39 1 -44 -17 -2 -22 -11 -24 -40 -2 -34 1 -38 22 -38 16 0 23 -6 23
-20 0 -17 -7 -20 -40 -20 -46 0 -60 18 -60 79 0 30 -4 41 -15 41 -22 0 -18 28
4 35 11 3 23 15 26 26 8 23 40 22 40 -1z m-313 -38 c9 -9 18 -30 20 -47 3 -32
4 -32 -74 -34 -21 -1 -38 -6 -38 -11 0 -17 31 -24 51 -12 19 12 59 16 59 6 0
-40 -69 -65 -120 -44 -62 26 -63 136 -1 159 34 13 81 5 103 -17z m182 17 c28
-13 36 -35 36 -106 0 -52 0 -53 -30 -53 l-30 0 0 60 c0 57 -1 60 -24 60 -28 0
-36 -16 -36 -76 0 -40 -2 -44 -25 -44 -25 0 -25 1 -25 80 0 79 0 80 25 80 14
0 25 -5 25 -11 0 -5 10 -3 22 5 27 19 30 19 62 5z m331 -11 c15 -14 27 -35 28
-53 2 -30 1 -30 -57 -35 -53 -4 -57 -7 -42 -19 14 -11 21 -12 40 -2 13 7 33
11 46 9 l22 -3 -20 -25 c-16 -20 -29 -25 -66 -25 -52 0 -80 22 -90 70 -16 79
78 135 139 83z m162 11 c26 -10 43 -25 43 -41 0 -12 -48 -10 -55 2 -3 6 -15
10 -26 10 -34 0 -16 -24 22 -31 49 -7 59 -16 59 -49 0 -61 -100 -81 -143 -29
-23 29 -3 45 30 24 27 -18 66 -20 61 -3 -3 7 -22 16 -43 20 -22 5 -43 14 -47
21 -15 23 -8 56 14 71 26 19 46 20 85 5z m801 -5 c19 -13 22 -24 22 -85 0 -62
-2 -69 -20 -69 -11 0 -20 5 -20 10 0 6 -11 3 -25 -6 -46 -30 -101 6 -88 57 5
18 51 39 84 39 11 0 19 7 19 15 0 8 -8 15 -19 15 -10 0 -24 -7 -31 -15 -15
-18 -50 -20 -50 -2 1 47 82 74 128 41z m333 -10 c27 -25 25 -54 -5 -54 -13 0
-26 7 -30 15 -8 23 -53 19 -61 -5 -10 -33 4 -60 31 -60 14 0 27 7 30 15 4 8
17 15 30 15 33 0 31 -33 -3 -60 -35 -28 -99 -22 -125 10 -21 26 -24 89 -5 112
32 41 100 47 138 12z m192 -5 c9 -12 17 -34 17 -50 0 -29 0 -29 -61 -29 -54 0
-60 -2 -49 -15 14 -17 46 -20 55 -5 7 12 55 14 55 2 0 -50 -115 -68 -151 -23
-22 26 -25 87 -6 112 34 44 107 48 140 8z m237 1 c0 -23 -4 -30 -20 -30 -23 0
-40 -34 -40 -81 0 -24 -4 -29 -25 -29 -25 0 -25 1 -25 80 0 79 0 80 25 80 14
0 25 -6 25 -12 0 -9 2 -10 8 -2 4 7 16 14 27 17 11 2 21 5 23 6 1 0 2 -12 2
-29z m174 0 c28 -28 28 -93 0 -121 -12 -11 -39 -23 -61 -26 -104 -14 -141 132
-43 170 26 11 83 -2 104 -23z m171 21 c-2 -2 2 -10 10 -18 8 -8 15 -21 15 -28
0 -15 -15 -13 -57 7 -27 13 -66 2 -43 -12 8 -6 27 -10 42 -10 55 0 79 -66 34
-95 -15 -10 -42 -15 -79 -13 -31 1 -52 5 -47 8 5 3 5 11 0 20 -16 25 -11 40
13 41 12 0 16 3 9 6 -37 15 -32 86 7 96 19 6 101 4 96 -2z m-2755 -81 l0 -80
-27 0 -28 0 3 80 c3 77 4 80 28 80 23 0 24 -2 24 -80z m1751 68 c0 -10 2 -10
6 0 2 6 16 12 29 12 19 0 24 -5 24 -25 0 -18 -5 -25 -20 -25 -23 0 -40 -34
-40 -81 0 -24 -4 -29 -25 -29 -25 0 -25 1 -25 80 0 79 0 80 25 80 14 0 25 -6
26 -12z m519 -68 c0 -78 -1 -80 -24 -80 -24 0 -25 3 -28 80 l-3 80 28 0 27 0
0 -80z m555 -487 c0 -13 -3 -23 -7 -23 -5 0 -1088 0 -2408 0 l-2400 0 0 25 0
25 2408 -3 2407 -2 0 -22z"/>
<path d="M1131 7358 c-10 -28 -4 -46 20 -59 41 -22 80 36 47 69 -20 20 -58 14
-67 -10z"/>
<path d="M1287 7362 c-21 -23 -22 -66 -1 -86 15 -16 34 -20 64 -16 38 4 54 75
24 104 -21 22 -67 20 -87 -2z"/>
<path d="M1462 7368 c-19 -19 -14 -45 10 -62 19 -13 25 -14 43 -2 25 16 31 42
15 61 -15 18 -52 19 -68 3z"/>
<path d="M1420 7284 c0 -8 5 -12 10 -9 6 4 8 11 5 16 -9 14 -15 11 -15 -7z"/>
<path d="M1120 7247 c-29 -15 -50 -51 -50 -89 0 -27 2 -28 55 -28 42 0 55 4
55 15 0 8 14 31 32 51 31 35 31 37 13 50 -23 17 -72 18 -105 1z"/>
<path d="M1444 7246 c-19 -14 -18 -15 7 -43 15 -15 32 -38 38 -50 10 -19 20
-23 63 -23 l51 0 -6 42 c-7 55 -43 88 -96 88 -20 0 -46 -6 -57 -14z"/>
<path d="M1275 7202 c-50 -32 -68 -59 -73 -112 l-5 -50 138 0 138 0 -5 51 c-4
41 -12 57 -40 86 -45 44 -107 55 -153 25z"/>
<path d="M850 6875 c0 -83 1 -85 20 -73 16 10 24 10 40 0 19 -12 20 -10 20 73
l0 85 -40 0 -40 0 0 -85z"/>
<path d="M1055 6941 c-11 -5 -35 -10 -52 -10 -18 -1 -33 -4 -33 -8 -1 -5 -2
-41 -3 -81 -2 -71 -2 -72 23 -72 14 0 80 -18 145 -40 126 -42 149 -46 205 -30
40 11 275 208 275 230 0 31 -33 18 -102 -40 -80 -68 -110 -80 -200 -80 -70 0
-93 6 -93 26 0 10 23 14 93 16 84 3 92 5 92 23 0 18 -8 20 -85 23 -70 2 -89 7
-107 24 -26 24 -122 35 -158 19z"/>
<path d="M880 6760 c0 -5 5 -10 10 -10 6 0 10 5 10 10 0 6 -4 10 -10 10 -5 0
-10 -4 -10 -10z"/>
<path d="M3230 6940 c0 -23 22 -27 39 -7 13 16 5 27 -21 27 -11 0 -18 -7 -18
-20z"/>
<path d="M3214 6845 c-8 -21 4 -35 30 -35 34 0 38 11 12 31 -29 23 -35 23 -42
4z"/>
<path d="M3542 6923 c3 -32 25 -40 52 -20 28 20 14 47 -24 47 -28 0 -31 -3
-28 -27z"/>
<path d="M2257 6904 c-15 -15 -6 -24 24 -24 20 0 29 4 27 13 -5 14 -40 21 -51
11z"/>
<path d="M2777 6904 c-15 -15 -6 -24 24 -24 20 0 29 4 27 13 -5 14 -40 21 -51
11z"/>
<path d="M3743 6835 c-3 -9 -2 -19 1 -23 8 -8 38 10 44 26 6 18 -38 14 -45 -3z"/>
<path d="M4250 6895 c-11 -13 -7 -15 25 -15 32 0 36 2 25 15 -7 8 -18 15 -25
15 -7 0 -18 -7 -25 -15z"/>
<path d="M4654 6886 c-3 -8 -4 -25 -2 -38 2 -18 9 -23 33 -23 28 0 30 3 30 35
0 31 -3 35 -28 38 -17 2 -29 -2 -33 -12z"/>
<path d="M4842 6828 c5 -15 48 -18 48 -3 1 6 -11 11 -26 13 -18 3 -25 0 -22
-10z"/>
<path d="M7120 7320 c0 -22 5 -40 10 -40 6 0 10 18 10 40 0 22 -4 40 -10 40
-5 0 -10 -18 -10 -40z"/>
<path d="M6720 6440 c0 -22 5 -40 10 -40 6 0 10 18 10 40 0 22 -4 40 -10 40
-5 0 -10 -18 -10 -40z"/>
<path d="M2120 3345 l0 -475 1210 0 1210 0 0 475 0 475 -1210 0 -1210 0 0
-475z m1797 193 c-3 -7 -5 -2 -5 12 0 14 2 19 5 13 2 -7 2 -19 0 -25z m-137
-49 c0 -6 -4 -7 -10 -4 -5 3 -10 11 -10 16 0 6 5 7 10 4 6 -3 10 -11 10 -16z
m285 1 c-3 -5 -11 -10 -16 -10 -6 0 -7 5 -4 10 3 6 11 10 16 10 6 0 7 -4 4
-10z m-825 -140 c0 -109 -2 -130 -15 -130 -8 0 -15 5 -15 12 0 9 -3 9 -12 0
-13 -13 -77 -16 -94 -4 -20 14 -44 57 -44 80 0 38 28 81 58 89 32 8 62 5 80
-9 9 -8 12 1 12 41 0 39 4 51 15 51 13 0 15 -21 15 -130z m649 15 c-1 -119 4
-138 42 -150 10 -4 19 -13 19 -21 0 -11 -10 -14 -37 -12 -30 2 -39 8 -41 24
-2 12 -14 26 -28 32 -31 15 -64 69 -64 105 0 45 26 95 62 117 18 11 36 20 41
20 4 0 7 -52 6 -115z m51 96 c0 -23 28 -35 46 -20 20 16 36 2 22 -20 -15 -24
-4 -51 22 -51 11 0 20 -7 20 -15 0 -8 -9 -15 -20 -15 -24 0 -37 -25 -22 -43
16 -19 -3 -46 -20 -29 -19 19 -45 14 -51 -9 -8 -29 -27 -14 -27 21 0 22 5 29
21 32 49 7 51 82 4 94 -21 5 -25 12 -25 40 0 24 5 34 15 34 8 0 15 -9 15 -19z
m-1082 -3 c-7 -19 -38 -22 -38 -4 0 10 9 16 21 16 12 0 19 -5 17 -12z m798
-58 c15 0 24 -6 24 -15 0 -9 -9 -15 -25 -15 -24 0 -25 -3 -25 -60 0 -41 4 -60
13 -61 6 -1 18 -2 24 -3 28 -3 16 -21 -16 -24 -43 -4 -51 8 -51 86 0 48 -3 62
-15 62 -22 0 -19 10 13 43 25 27 27 27 30 8 2 -15 11 -21 28 -21z m-269 -17
c3 -8 -13 -13 -44 -15 -59 -4 -66 -27 -12 -43 66 -19 85 -50 52 -87 -26 -29
-123 -23 -123 8 0 10 12 12 51 7 46 -5 51 -4 48 12 -3 11 -20 24 -46 32 -91
31 -54 123 41 104 16 -4 31 -12 33 -18z m163 -11 c11 -13 20 -35 20 -48 0 -23
-3 -24 -65 -24 -49 0 -65 -3 -65 -14 0 -26 29 -39 75 -34 49 6 67 -5 36 -21
-25 -14 -87 -14 -111 -1 -29 16 -44 73 -30 116 21 63 100 78 140 26z m-994 17
c4 -8 9 -8 17 0 16 16 73 13 87 -4 11 -13 14 -13 27 0 19 20 77 19 94 -1 8 -9
13 -44 13 -87 1 -58 -2 -72 -14 -72 -11 0 -16 17 -20 70 -5 66 -6 70 -31 73
-36 4 -47 -14 -51 -83 -2 -45 -7 -60 -18 -60 -11 0 -16 17 -20 70 -5 66 -6 70
-31 73 -36 4 -47 -14 -51 -83 -2 -45 -7 -60 -18 -60 -12 0 -16 16 -18 74 -2
41 -1 80 2 88 6 16 22 17 32 2z m299 -80 c0 -68 -3 -84 -15 -84 -12 0 -16 16
-18 74 -3 82 2 105 21 98 8 -2 12 -29 12 -88z m61 80 c4 -8 9 -8 17 0 17 17
83 13 98 -6 20 -24 19 -158 -1 -158 -11 0 -16 17 -20 70 -5 70 -5 70 -36 73
-41 4 -52 -12 -56 -83 -2 -45 -7 -60 -18 -60 -12 0 -16 16 -18 74 -2 41 -1 80
2 88 6 16 22 17 32 2z m814 -39 c0 -5 -7 -10 -15 -10 -8 0 -15 5 -15 10 0 6 7
10 15 10 8 0 15 -4 15 -10z m400 0 c0 -5 -7 -10 -15 -10 -8 0 -15 5 -15 10 0
6 7 10 15 10 8 0 15 -4 15 -10z m-350 -145 c-7 -9 -15 -13 -17 -11 -7 7 7 26
19 26 6 0 6 -6 -2 -15z m285 5 c3 -5 2 -10 -4 -10 -5 0 -13 5 -16 10 -3 6 -2
10 4 10 5 0 13 -4 16 -10z m-132 -57 c-13 -2 -23 -8 -23 -13 0 -5 10 -11 23
-13 12 -2 2 -5 -23 -5 -33 -1 -41 1 -30 8 13 9 13 11 0 20 -11 7 -3 9 30 8 25
0 35 -3 23 -5z m-733 -38 c0 -20 -5 -25 -22 -24 -21 1 -21 2 -3 7 l20 5 -20 8
c-18 7 -18 8 -2 8 10 1 15 6 12 11 -3 6 -1 10 4 10 6 0 11 -11 11 -25z m53 5
c-4 -14 0 -20 12 -20 12 0 16 6 12 20 -3 11 -1 20 5 20 5 0 8 -17 6 -37 -2
-28 -8 -38 -21 -39 -12 -1 -13 -1 -2 3 21 6 19 20 -5 26 -20 5 -29 47 -11 47
5 0 7 -9 4 -20z m92 10 c-3 -5 1 -10 10 -10 10 0 13 5 9 12 -4 7 -3 8 4 4 19
-12 14 -26 -10 -27 -22 -1 -22 -1 2 -9 l25 -8 -27 -1 c-23 -1 -28 3 -28 24 0
14 5 25 11 25 5 0 7 -4 4 -10z m114 -17 c-2 -24 -2 -25 -6 -5 -2 12 -11 22
-18 22 -7 0 -16 -10 -18 -22 -4 -20 -4 -19 -6 5 -1 23 3 27 24 27 21 0 25 -4
24 -27z m54 7 c-4 -16 0 -20 18 -21 19 -1 20 -2 5 -6 -23 -6 -41 11 -33 31 9
23 16 20 10 -4z m74 -17 c-3 -10 -5 -4 -5 12 0 17 2 24 5 18 2 -7 2 -21 0 -30z
m83 12 c0 -14 -5 -25 -11 -25 -5 0 -7 5 -4 10 3 6 -2 11 -12 11 -17 1 -17 2 0
6 9 2 15 9 12 14 -4 5 -1 9 4 9 6 0 11 -11 11 -25z m270 -25 c-20 -13 -47 -13
-55 0 -4 6 9 10 32 10 28 0 34 -3 23 -10z"/>
<path d="M3112 3358 c-16 -16 -16 -80 0 -96 15 -15 53 -16 79 -2 14 8 19 21
19 50 0 29 -5 42 -19 50 -26 14 -64 13 -79 -2z"/>
<path d="M3461 3363 c-34 -23 -25 -33 29 -33 46 0 50 2 41 19 -14 25 -45 32
-70 14z"/>
<path d="M7434 3766 c6 -19 13 -33 17 -31 3 2 6 -37 7 -88 1 -145 1 -140 17
-134 8 4 17 1 21 -5 4 -6 3 -8 -4 -4 -6 3 -14 1 -18 -5 -12 -20 54 -69 93 -69
33 0 34 1 19 22 -22 32 -20 60 9 102 l26 38 -23 36 c-38 62 -98 121 -115 115
-12 -5 -14 -3 -8 7 6 10 4 12 -8 7 -9 -3 -16 -3 -15 1 2 11 -13 42 -22 42 -4
0 -2 -15 4 -34z m77 -53 c13 -16 12 -17 -3 -4 -17 13 -22 21 -14 21 2 0 10 -8
17 -17z"/>
<path d="M7495 3762 c22 -17 44 -28 50 -25 5 4 7 3 3 -1 -4 -5 3 -18 15 -30
17 -16 55 -64 82 -104 4 -5 65 33 65 41 0 17 -59 68 -71 61 -7 -4 -9 -3 -5 4
8 13 -22 31 -47 27 -9 -2 -14 1 -11 6 6 10 -39 31 -91 43 -29 7 -29 7 10 -22z
m115 -62 c8 -5 11 -10 5 -10 -5 0 -17 5 -25 10 -8 5 -10 10 -5 10 6 0 17 -5
25 -10z"/>
<path d="M9430 3638 c-47 -72 -93 -144 -103 -158 -17 -28 -17 -28 24 -74 l41
-46 155 0 154 0 -38 46 c-21 25 -37 50 -35 55 1 6 47 77 102 159 l100 150
-157 0 -158 0 -85 -132z"/>
<path d="M9751 3615 c-56 -85 -101 -158 -101 -162 0 -4 19 -27 42 -50 l42 -43
155 0 155 0 -42 43 c-23 23 -42 48 -42 54 0 21 21 25 40 8 10 -9 28 -15 39
-13 21 3 21 3 -4 40 -21 32 -24 42 -14 59 10 20 13 18 51 -40 31 -46 46 -61
64 -61 13 0 24 2 24 5 0 3 -23 39 -50 80 -42 63 -49 78 -40 95 6 11 12 20 14
20 2 0 32 -43 66 -96 62 -96 75 -109 105 -102 12 2 6 17 -28 68 -110 163 -116
174 -101 194 12 17 21 6 106 -123 74 -114 97 -141 115 -141 13 0 23 3 23 6 0
3 -45 75 -101 160 l-101 154 -158 0 -158 0 -101 -155z"/>
<path d="M5750 3215 l0 -135 45 0 45 0 0 135 0 135 -45 0 -45 0 0 -135z"/>
<path d="M5880 3215 l0 -135 30 0 c17 0 33 0 38 0 4 0 9 30 12 67 l5 67 44
-67 c43 -66 44 -67 87 -67 l44 0 0 135 0 135 -45 0 -45 0 0 -67 0 -67 -42 67
c-42 65 -44 67 -85 67 l-43 0 0 -135z"/>
<path d="M6240 3328 c-44 -30 -60 -61 -60 -116 0 -57 25 -98 75 -122 51 -25
69 -25 122 -1 51 24 73 63 73 131 0 43 -5 55 -33 87 -29 31 -41 37 -88 40 -45
4 -60 1 -89 -19z m121 -82 c25 -54 -18 -109 -67 -87 -28 13 -39 47 -25 84 9
22 17 27 46 27 28 0 38 -5 46 -24z"/>
<path d="M6517 3215 l45 -135 57 0 57 0 42 128 c23 70 42 131 42 135 0 4 -19
7 -43 7 l-42 0 -29 -92 -29 -93 -24 80 c-13 44 -26 86 -28 93 -3 7 -22 12 -49
12 l-45 0 46 -135z"/>
<path d="M6860 3326 c-4 -13 -22 -61 -38 -107 -17 -46 -35 -96 -41 -111 -10
-28 -10 -28 34 -28 35 0 45 4 50 20 5 16 15 20 52 20 36 0 46 -4 50 -20 4 -16
14 -20 49 -20 24 0 44 3 44 6 0 3 -21 64 -46 135 l-47 129 -49 0 c-42 0 -50
-3 -58 -24z m74 -123 c6 -19 3 -23 -13 -23 -22 0 -25 10 -14 49 6 25 14 18 27
-26z"/>
<path d="M7150 3332 c-44 -22 -76 -92 -66 -145 21 -110 155 -150 238 -71 22
22 28 37 28 71 l0 43 -70 0 -70 0 0 -30 c0 -27 3 -30 31 -30 17 0 28 -4 24
-10 -10 -16 -62 -12 -79 6 -18 18 -21 56 -5 85 9 18 17 19 85 13 55 -5 74 -4
74 5 0 65 -112 103 -190 63z"/>
<path d="M7380 3215 l0 -135 90 0 90 0 0 30 c0 29 -2 30 -45 30 -38 0 -45 3
-45 20 0 17 7 20 40 20 39 0 40 1 40 35 0 34 -1 35 -40 35 -29 0 -40 4 -40 15
0 11 12 15 45 15 45 0 45 0 45 35 l0 35 -90 0 -90 0 0 -135z"/>
<path d="M7664 3331 c-47 -29 -64 -59 -64 -114 0 -65 22 -104 73 -128 53 -24
71 -24 122 1 50 24 75 65 75 122 0 108 -115 175 -206 119z m117 -88 c15 -38 0
-75 -35 -88 -24 -8 -31 -6 -47 14 -38 46 -18 101 37 101 28 0 36 -5 45 -27z"/>
<path d="M9430 3330 c0 -6 59 -10 156 -10 101 0 153 3 149 10 -4 6 -67 10
-156 10 -93 0 -149 -4 -149 -10z"/>
<path d="M9760 3330 c0 -6 61 -10 163 -10 108 0 157 4 147 10 -20 13 -310 13
-310 0z"/>
<path d="M9475 3280 c4 -6 69 -10 161 -10 101 0 153 3 149 10 -4 6 -69 10
-161 10 -101 0 -153 -3 -149 -10z"/>
<path d="M9805 3280 c4 -6 69 -10 161 -10 101 0 153 3 149 10 -4 6 -69 10
-161 10 -101 0 -153 -3 -149 -10z"/>
<path d="M9780 3232 c0 -5 7 -9 15 -9 8 0 12 4 9 9 -3 4 -9 8 -15 8 -5 0 -9
-4 -9 -8z"/>
<path d="M9502 3198 c-7 -7 -12 -24 -12 -38 0 -32 17 -50 47 -50 30 0 30 18 1
22 -17 2 -23 10 -23 28 0 18 6 26 23 28 12 2 22 8 22 13 0 13 -44 11 -58 -3z"/>
<path d="M9580 3160 c0 -49 1 -50 30 -50 17 0 30 5 30 10 0 6 -9 10 -20 10
-11 0 -20 5 -20 10 0 6 7 10 15 10 8 0 15 5 15 10 0 6 -7 10 -15 10 -8 0 -15
5 -15 10 0 6 9 10 20 10 11 0 20 5 20 10 0 6 -13 10 -30 10 -29 0 -30 -1 -30
-50z"/>
<path d="M9660 3160 c0 -27 5 -50 10 -50 6 0 10 7 10 15 0 8 4 15 9 15 5 0 11
-7 15 -15 3 -8 10 -15 16 -15 7 0 8 6 1 17 -6 11 -6 24 1 36 12 24 -6 47 -38
47 -22 0 -24 -4 -24 -50z m40 15 c0 -8 -4 -15 -10 -15 -5 0 -10 7 -10 15 0 8
5 15 10 15 6 0 10 -7 10 -15z"/>
<path d="M9762 3163 c-11 -26 -19 -49 -17 -51 2 -2 12 3 24 10 17 11 25 11 42
0 12 -7 23 -11 25 -9 7 7 -34 97 -44 97 -5 0 -19 -21 -30 -47z m38 -8 c0 -8
-4 -15 -10 -15 -5 0 -10 7 -10 15 0 8 5 15 10 15 6 0 10 -7 10 -15z"/>
<path d="M9857 3203 c-4 -3 -7 -26 -7 -50 0 -43 12 -57 24 -26 6 14 8 14 20
-3 16 -21 17 -20 33 16 l12 25 0 -27 c2 -50 21 -29 21 22 0 58 -12 64 -36 18
l-17 -33 -15 33 c-16 32 -23 38 -35 25z"/>
<path d="M9980 3160 c0 -27 5 -50 10 -50 6 0 10 23 10 50 0 28 -4 50 -10 50
-5 0 -10 -22 -10 -50z"/>
<path d="M10024 3185 c-15 -23 -15 -27 0 -50 9 -14 25 -25 36 -25 28 0 34 18
8 22 -17 2 -23 10 -23 28 0 18 6 26 23 28 26 4 20 22 -8 22 -11 0 -27 -11 -36
-25z"/>
<path d="M10126 3164 c-10 -25 -15 -48 -11 -52 4 -4 10 -1 12 6 3 6 15 12 28
12 13 0 25 -6 28 -12 2 -7 8 -10 12 -6 10 9 -25 98 -39 98 -6 0 -19 -21 -30
-46z m38 -16 c-9 -14 -23 2 -17 18 4 12 8 13 14 3 4 -7 5 -17 3 -21z"/>
<path d="M9369 3051 c-20 -16 -22 -23 -14 -47 8 -23 17 -30 43 -32 18 -2 32 1
32 7 0 6 -11 11 -24 11 -13 0 -27 7 -30 16 -8 20 12 47 30 40 7 -3 16 -1 19 3
3 5 -2 12 -11 15 -21 8 -19 9 -45 -13z"/>
<path d="M9793 3062 c-20 -3 -23 -10 -23 -48 0 -42 1 -44 30 -44 17 0 30 5 30
10 0 6 -9 10 -20 10 -11 0 -20 5 -20 10 0 6 8 10 18 10 16 1 16 1 0 11 -25 14
-22 27 5 31 12 2 18 5 12 9 -5 3 -20 3 -32 1z"/>
<path d="M9477 3053 c-3 -5 -12 -24 -20 -44 l-14 -35 47 0 47 1 -16 43 c-14
38 -33 53 -44 35z m19 -50 c-10 -10 -19 5 -10 18 6 11 8 11 12 0 2 -7 1 -15
-2 -18z"/>
<path d="M9550 3016 c0 -34 4 -46 15 -46 8 0 15 8 15 18 1 16 1 16 14 0 15
-20 42 -25 29 -5 -4 6 -8 26 -8 42 0 27 -4 30 -32 33 -33 3 -33 3 -33 -42z
m50 13 c0 -5 -4 -9 -10 -9 -5 0 -10 7 -10 16 0 8 5 12 10 9 6 -3 10 -10 10
-16z"/>
<path d="M9640 3015 c0 -46 12 -58 28 -29 8 15 10 15 15 0 9 -24 24 -19 35 12
l10 27 1 -27 c2 -47 21 -31 21 17 0 55 -22 61 -40 13 l-12 -33 -14 33 c-21 49
-44 42 -44 -13z"/>
<path d="M9840 3015 c0 -43 1 -45 30 -45 17 0 30 5 30 10 0 6 -9 10 -20 10
-16 0 -20 7 -20 35 0 19 -4 35 -10 35 -5 0 -10 -20 -10 -45z"/>
<path d="M9920 3015 c0 -25 5 -45 10 -45 6 0 10 20 10 45 0 25 -4 45 -10 45
-5 0 -10 -20 -10 -45z"/>
<path d="M9963 3049 c11 -6 17 -22 17 -44 0 -19 5 -35 10 -35 6 0 10 18 10 39
0 22 5 42 13 44 6 3 -6 6 -28 6 -32 0 -36 -2 -22 -10z"/>
<path d="M10067 3053 c-3 -4 -11 -24 -19 -43 l-15 -35 47 0 47 0 -17 39 c-16
39 -34 55 -43 39z m23 -38 c0 -8 -4 -15 -10 -15 -5 0 -10 7 -10 15 0 8 5 15
10 15 6 0 10 -7 10 -15z"/>
<path d="M10140 3015 c0 -25 5 -45 10 -45 6 0 10 11 10 25 0 14 4 25 8 25 5 0
15 -11 22 -25 22 -41 40 -31 40 20 0 25 -4 45 -10 45 -5 0 -10 -12 -10 -27
l-1 -28 -22 28 c-33 40 -47 35 -47 -18z"/>
<path d="M10271 3041 c-6 -11 -15 -30 -20 -43 -8 -22 -7 -23 39 -24 l48 0 -17
40 c-20 47 -35 55 -50 27z m29 -26 c0 -8 -4 -15 -10 -15 -5 0 -10 7 -10 15 0
8 5 15 10 15 6 0 10 -7 10 -15z"/>
<path d="M7752 2985 c0 -16 2 -22 5 -12 2 9 2 23 0 30 -3 6 -5 -1 -5 -18z"/>
<path d="M6980 2976 c0 -8 4 -17 9 -20 5 -4 7 3 4 14 -6 23 -13 26 -13 6z"/>
<path d="M7672 2970 c0 -14 2 -19 5 -12 2 6 2 18 0 25 -3 6 -5 1 -5 -13z"/>
<path d="M4483 753 c93 -2 241 -2 330 0 89 1 14 3 -168 3 -181 0 -254 -2 -162
-3z"/>
<path d="M4160 680 c0 -11 5 -20 10 -20 6 0 10 9 10 20 0 11 -4 20 -10 20 -5
0 -10 -9 -10 -20z"/>
<path d="M4080 520 c0 -22 5 -40 10 -40 6 0 10 18 10 40 0 22 -4 40 -10 40 -5
0 -10 -18 -10 -40z"/>
</g>
</svg>
